# xmcd
# 
# Track frame offsets:
#     150
#     3031
#     22780
#     49474
#     81214
#     116357
#     144472
#     177784
#     207678
#     245339
#     283443
#     301617
#     325821
#     330561
# 
# Disc length: 4440
# 
# Revision: 0
# Processed by: cddbd v1.5.2PL0 Copyright (c) Steve Scherf et al.
# Submitted via: fre:ac v1.0.27
# 
DISCID=b911560e
DTITLE=Gregg Hurwitz - You're Next 1
DYEAR=0
DGENRE=
TTITLE0=0101
TTITLE1=0102
TTITLE2=0103
TTITLE3=0104
TTITLE4=0105
TTITLE5=0106
TTITLE6=0107
TTITLE7=0108
TTITLE8=0109
TTITLE9=0110
TTITLE10=0111
TTITLE11=0112
TTITLE12=0113
TTITLE13=0114
EXTD=
EXTT0=
EXTT1=
EXTT2=
EXTT3=
EXTT4=
EXTT5=
EXTT6=
EXTT7=
EXTT8=
EXTT9=
EXTT10=
EXTT11=
EXTT12=
EXTT13=
PLAYORDER=
